<svg width="27" height="26" viewBox="0 0 27 26" fill="none" xmlns="http://www.w3.org/2000/svg">
<rect width="27" height="26" rx="5" fill="#FE5C17"/>
<rect x="2.7002" y="2.59961" width="21.6" height="20.8" fill="white"/>
<path d="M4.95048 7.36667C4.95048 6.88802 5.3385 6.5 5.81715 6.5H21.1838C21.6625 6.5 22.0505 6.88802 22.0505 7.36667C22.0505 7.84531 21.6625 8.23333 21.1838 8.23333H5.81715C5.3385 8.23333 4.95048 7.84531 4.95048 7.36667Z" fill="#FE5C17"/>
<path d="M4.83008 11.2667C4.83008 10.788 5.23302 10.4 5.73008 10.4H21.0301C21.5271 10.4 21.9301 10.788 21.9301 11.2667C21.9301 11.7453 21.5271 12.1333 21.0301 12.1333H5.73008C5.23302 12.1333 4.83008 11.7453 4.83008 11.2667Z" fill="#FE5C17"/>
<path d="M4.83008 19.0667C4.83008 18.588 5.23302 18.2 5.73008 18.2H21.0301C21.5271 18.2 21.9301 18.588 21.9301 19.0667C21.9301 19.5453 21.5271 19.9333 21.0301 19.9333H5.73008C5.23302 19.9333 4.83008 19.5453 4.83008 19.0667Z" fill="#FE5C17"/>
<path d="M4.83008 15.1667C4.83008 14.688 5.23302 14.3 5.73008 14.3H21.0301C21.5271 14.3 21.9301 14.688 21.9301 15.1667C21.9301 15.6453 21.5271 16.0333 21.0301 16.0333H5.73008C5.23302 16.0333 4.83008 15.6453 4.83008 15.1667Z" fill="#FE5C17"/>
</svg>
