<svg width="362" height="254" viewBox="0 0 362 254" fill="none" xmlns="http://www.w3.org/2000/svg">
<g filter="url(#filter0_d_1543_209)">
<rect x="1" y="1" width="356" height="247.62" rx="5" fill="#F4F4F4"/>
<rect x="0.5" y="0.5" width="357" height="248.62" rx="5.5" stroke="#D2D1D1"/>
</g>
<path d="M151.425 156.35V178.95H153.425V156.35H151.425ZM142.05 164.975V166.675H147.725V164.975H142.05ZM146.875 156.875V177.8H148.85V156.875H146.875ZM135.075 171.775V173.525H136.525C140.125 173.525 142.3 173.425 144.875 172.875L144.675 171.15C142.175 171.675 140.05 171.775 136.525 171.775H135.075ZM135.075 159.1V172.45H137.125V160.8H143.575V159.1H135.075ZM173.648 156.325V178.975H175.723V156.325H173.648ZM163.798 158.075C160.473 158.075 158.073 161.15 158.073 165.95C158.073 170.775 160.473 173.85 163.798 173.85C167.148 173.85 169.548 170.775 169.548 165.95C169.548 161.15 167.148 158.075 163.798 158.075ZM163.798 159.95C166.023 159.95 167.548 162.3 167.548 165.95C167.548 169.625 166.023 172.025 163.798 172.025C161.598 172.025 160.048 169.625 160.048 165.95C160.048 162.3 161.598 159.95 163.798 159.95ZM195.177 159.025V159.35C195.177 164.7 193.452 169.475 187.377 172.775L188.552 174.275C195.377 170.45 197.127 164.875 197.127 159.025H195.177ZM188.477 159.025V160.725H195.952V159.025H188.477ZM194.927 164.25L187.352 164.75L187.677 166.55L194.927 165.8V164.25ZM195.377 165.275V166.95H200.577V165.275H195.377ZM204.477 156.35V178.95H206.477V156.35H204.477ZM199.802 156.925V177.8H201.752V156.925H199.802ZM216.3 158.075C213 158.075 210.675 161.15 210.675 165.95C210.675 170.775 213 173.85 216.3 173.85C219.575 173.85 221.925 170.775 221.925 165.95C221.925 161.15 219.575 158.075 216.3 158.075ZM216.3 159.95C218.475 159.95 219.95 162.3 219.95 165.95C219.95 169.625 218.475 172.025 216.3 172.025C214.125 172.025 212.65 169.625 212.65 165.95C212.65 162.3 214.125 159.95 216.3 159.95ZM226.825 156.325V178.975H228.875V156.325H226.825ZM221.25 164.95V166.65H227.725V164.95H221.25Z" fill="#434343"/>
<path d="M215.115 105.98C214.926 105.407 214.545 104.907 214.029 104.554C213.513 104.2 212.889 104.012 212.25 104.017L211.442 104.154C206.18 105.516 200.627 105.545 195.35 104.238C190.072 102.93 185.259 100.334 181.401 96.7134C177.544 93.0928 174.779 88.5776 173.39 83.6283C172.001 78.679 172.037 73.4728 173.494 68.5408C173.566 68.341 173.603 68.1317 173.604 67.9208C173.639 67.4763 173.557 67.0306 173.365 66.6228C173.174 66.215 172.878 65.8577 172.504 65.5821C172.13 65.3066 171.69 65.1214 171.222 65.0427C170.755 64.9641 170.273 64.9944 169.821 65.131C163.645 66.754 158.03 69.8648 153.534 74.1539C149.039 78.443 145.819 83.761 144.196 89.5789C142.573 95.3967 142.602 101.512 144.282 107.315C145.962 113.119 149.233 118.409 153.77 122.66C158.307 126.91 163.952 129.973 170.144 131.543C176.335 133.113 182.857 133.136 189.061 131.61C195.264 130.083 200.934 127.06 205.505 122.842C210.076 118.623 213.389 113.356 215.115 107.564C215.3 107.05 215.3 106.494 215.115 105.98V105.98ZM179.739 127.231C172.701 127.236 165.872 124.985 160.385 120.852C154.899 116.718 151.085 110.95 149.575 104.504C148.065 98.0588 148.951 91.3231 152.086 85.4145C155.22 79.5059 160.415 74.7795 166.808 72.0195C166.117 77.2176 166.7 82.4952 168.514 87.4499C170.328 92.4046 173.324 96.9056 177.275 100.61C181.225 104.314 186.026 107.123 191.311 108.824C196.595 110.525 202.224 111.072 207.768 110.423C205.283 115.432 201.326 119.674 196.362 122.651C191.398 125.627 185.632 127.216 179.739 127.231V127.231Z" fill="black"/>
<defs>
<filter id="filter0_d_1543_209" x="0" y="0" width="362" height="253.619" filterUnits="userSpaceOnUse" color-interpolation-filters="sRGB">
<feFlood flood-opacity="0" result="BackgroundImageFix"/>
<feColorMatrix in="SourceAlpha" type="matrix" values="0 0 0 0 0 0 0 0 0 0 0 0 0 0 0 0 0 0 127 0" result="hardAlpha"/>
<feOffset dx="2" dy="2"/>
<feGaussianBlur stdDeviation="1"/>
<feComposite in2="hardAlpha" operator="out"/>
<feColorMatrix type="matrix" values="0 0 0 0 0 0 0 0 0 0 0 0 0 0 0 0 0 0 0.25 0"/>
<feBlend mode="normal" in2="BackgroundImageFix" result="effect1_dropShadow_1543_209"/>
<feBlend mode="normal" in="SourceGraphic" in2="effect1_dropShadow_1543_209" result="shape"/>
</filter>
</defs>
</svg>
