<svg width="362" height="254" viewBox="0 0 362 254" fill="none" xmlns="http://www.w3.org/2000/svg">
<g filter="url(#filter0_d_1543_208)">
<rect x="1" y="1" width="356" height="247.619" rx="5" fill="#F4F4F4"/>
<rect x="0.5" y="0.5" width="357" height="248.619" rx="5.5" stroke="#D2D1D1"/>
</g>
<path d="M135.2 170.8V172.525H136.975C141.2 172.525 144.15 172.4 147.65 171.8L147.425 170.1C144.025 170.7 141.15 170.8 136.975 170.8H135.2ZM135.2 157.4V171.4H137.275V159.125H145.725V157.4H135.2ZM136.75 163.725V165.4H145.225V163.725H136.75ZM149.525 155.35V177.95H151.625V155.35H149.525ZM151.125 164.425V166.175H155.325V164.425H151.125ZM173.673 155.375V168.275H175.773V155.375H173.673ZM161.173 169.5V177.65H175.773V169.5H161.173ZM173.723 171.15V175.975H163.198V171.15H173.723ZM163.648 156.55C160.223 156.55 157.748 158.7 157.748 161.825C157.748 164.95 160.223 167.1 163.648 167.1C167.073 167.1 169.523 164.95 169.523 161.825C169.523 158.7 167.073 156.55 163.648 156.55ZM163.648 158.275C165.898 158.275 167.523 159.725 167.523 161.825C167.523 163.925 165.898 165.35 163.648 165.35C161.398 165.35 159.773 163.925 159.773 161.825C159.773 159.725 161.398 158.275 163.648 158.275ZM195.177 158.025V158.35C195.177 163.7 193.452 168.475 187.377 171.775L188.552 173.275C195.377 169.45 197.127 163.875 197.127 158.025H195.177ZM188.477 158.025V159.725H195.952V158.025H188.477ZM194.927 163.25L187.352 163.75L187.677 165.55L194.927 164.8V163.25ZM195.377 164.275V165.95H200.577V164.275H195.377ZM204.477 155.35V177.95H206.477V155.35H204.477ZM199.802 155.925V176.8H201.752V155.925H199.802ZM216.3 157.075C213 157.075 210.675 160.15 210.675 164.95C210.675 169.775 213 172.85 216.3 172.85C219.575 172.85 221.925 169.775 221.925 164.95C221.925 160.15 219.575 157.075 216.3 157.075ZM216.3 158.95C218.475 158.95 219.95 161.3 219.95 164.95C219.95 168.625 218.475 171.025 216.3 171.025C214.125 171.025 212.65 168.625 212.65 164.95C212.65 161.3 214.125 158.95 216.3 158.95ZM226.825 155.325V177.975H228.875V155.325H226.825ZM221.25 163.95V165.65H227.725V163.95H221.25Z" fill="#434343"/>
<path d="M179.266 76.4488C174.753 76.4488 170.342 77.787 166.59 80.2942C162.837 82.8015 159.913 86.3651 158.186 90.5345C156.459 94.7038 156.007 99.2917 156.887 103.718C157.768 108.144 159.941 112.21 163.132 115.401C166.323 118.592 170.389 120.765 174.815 121.646C179.241 122.526 183.829 122.074 187.998 120.347C192.168 118.62 195.731 115.696 198.239 111.943C200.746 108.191 202.084 103.779 202.084 99.2664C202.075 93.2175 199.668 87.4189 195.391 83.1417C191.114 78.8645 185.315 76.4576 179.266 76.4488V76.4488ZM179.266 116.715C175.815 116.715 172.442 115.692 169.572 113.775C166.703 111.857 164.466 109.132 163.146 105.944C161.825 102.755 161.48 99.247 162.153 95.8623C162.826 92.4776 164.488 89.3685 166.928 86.9282C169.368 84.488 172.478 82.8262 175.862 82.1529C179.247 81.4796 182.755 81.8252 185.944 83.1458C189.132 84.4665 191.857 86.7029 193.775 89.5724C195.692 92.4418 196.715 95.8153 196.715 99.2664C196.715 103.894 194.877 108.332 191.605 111.605C188.332 114.877 183.894 116.715 179.266 116.715V116.715ZM176.582 68.3955V61.6844C176.582 60.9725 176.865 60.2897 177.368 59.7862C177.872 59.2828 178.554 59 179.266 59C179.978 59 180.661 59.2828 181.165 59.7862C181.668 60.2897 181.951 60.9725 181.951 61.6844V68.3955C181.951 69.1074 181.668 69.7902 181.165 70.2937C180.661 70.7971 179.978 71.0799 179.266 71.0799C178.554 71.0799 177.872 70.7971 177.368 70.2937C176.865 69.7902 176.582 69.1074 176.582 68.3955ZM150.778 74.6032C150.485 74.3625 150.245 74.0631 150.074 73.7242C149.904 73.3853 149.806 73.0145 149.788 72.6356C149.769 72.2566 149.83 71.878 149.966 71.524C150.103 71.1701 150.312 70.8486 150.58 70.5803C150.849 70.3121 151.17 70.1029 151.524 69.9664C151.878 69.8298 152.257 69.7689 152.636 69.7875C153.015 69.8061 153.385 69.9039 153.724 70.0745C154.063 70.245 154.363 70.4847 154.603 70.7779L159.335 75.5428C159.837 76.046 160.118 76.7278 160.118 77.4386C160.118 78.1495 159.837 78.8313 159.335 79.3345C158.827 79.8285 158.147 80.1049 157.439 80.1049C156.73 80.1049 156.05 79.8285 155.543 79.3345L150.778 74.6032ZM148.395 101.951H141.684C140.972 101.951 140.29 101.668 139.786 101.165C139.283 100.661 139 99.9783 139 99.2664C139 98.5544 139.283 97.8716 139.786 97.3682C140.29 96.8648 140.972 96.582 141.684 96.582H148.395C149.107 96.582 149.79 96.8648 150.294 97.3682C150.797 97.8716 151.08 98.5544 151.08 99.2664C151.08 99.9783 150.797 100.661 150.294 101.165C149.79 101.668 149.107 101.951 148.395 101.951ZM159.335 119.198C159.837 119.701 160.118 120.383 160.118 121.094C160.118 121.805 159.837 122.487 159.335 122.99L154.603 127.755C154.088 128.247 153.403 128.524 152.691 128.527C151.979 128.517 151.297 128.242 150.778 127.755C150.274 127.246 149.991 126.559 149.991 125.842C149.991 125.126 150.274 124.438 150.778 123.93L155.543 119.198C156.046 118.696 156.728 118.414 157.439 118.414C158.149 118.414 158.831 118.696 159.335 119.198V119.198ZM181.951 130.137V136.848C181.951 137.56 181.668 138.243 181.165 138.747C180.661 139.25 179.978 139.533 179.266 139.533C178.554 139.533 177.872 139.25 177.368 138.747C176.865 138.243 176.582 137.56 176.582 136.848V130.137C176.582 129.425 176.865 128.743 177.368 128.239C177.872 127.736 178.554 127.453 179.266 127.453C179.978 127.453 180.661 127.736 181.165 128.239C181.668 128.743 181.951 129.425 181.951 130.137ZM207.755 123.93C208.259 124.438 208.542 125.126 208.542 125.842C208.542 126.559 208.259 127.246 207.755 127.755C207.236 128.242 206.554 128.517 205.842 128.527C205.129 128.524 204.445 128.247 203.93 127.755L199.198 122.99C198.736 122.479 198.487 121.81 198.504 121.121C198.521 120.433 198.802 119.777 199.289 119.289C199.777 118.802 200.433 118.521 201.121 118.504C201.81 118.487 202.479 118.736 202.99 119.198L207.755 123.93ZM219.533 99.2664C219.533 99.9783 219.25 100.661 218.747 101.165C218.243 101.668 217.56 101.951 216.848 101.951H210.137C209.425 101.951 208.743 101.668 208.239 101.165C207.736 100.661 207.453 99.9783 207.453 99.2664C207.453 98.5544 207.736 97.8716 208.239 97.3682C208.743 96.8648 209.425 96.582 210.137 96.582H216.848C217.56 96.582 218.243 96.8648 218.747 97.3682C219.25 97.8716 219.533 98.5544 219.533 99.2664ZM199.198 79.3345C198.696 78.8313 198.414 78.1495 198.414 77.4386C198.414 76.7278 198.696 76.046 199.198 75.5428L203.93 70.7779C204.451 70.3499 205.113 70.1311 205.787 70.1642C206.461 70.1973 207.099 70.4799 207.576 70.957C208.053 71.4341 208.335 72.0716 208.369 72.7456C208.402 73.4195 208.183 74.0817 207.755 74.6032L202.99 79.3345C202.483 79.8285 201.802 80.1049 201.094 80.1049C200.386 80.1049 199.706 79.8285 199.198 79.3345V79.3345Z" fill="black"/>
<defs>
<filter id="filter0_d_1543_208" x="0" y="0" width="362" height="253.619" filterUnits="userSpaceOnUse" color-interpolation-filters="sRGB">
<feFlood flood-opacity="0" result="BackgroundImageFix"/>
<feColorMatrix in="SourceAlpha" type="matrix" values="0 0 0 0 0 0 0 0 0 0 0 0 0 0 0 0 0 0 127 0" result="hardAlpha"/>
<feOffset dx="2" dy="2"/>
<feGaussianBlur stdDeviation="1"/>
<feComposite in2="hardAlpha" operator="out"/>
<feColorMatrix type="matrix" values="0 0 0 0 0 0 0 0 0 0 0 0 0 0 0 0 0 0 0.25 0"/>
<feBlend mode="normal" in2="BackgroundImageFix" result="effect1_dropShadow_1543_208"/>
<feBlend mode="normal" in="SourceGraphic" in2="effect1_dropShadow_1543_208" result="shape"/>
</filter>
</defs>
</svg>
