<svg width="362" height="254" viewBox="0 0 362 254" fill="none" xmlns="http://www.w3.org/2000/svg">
<g filter="url(#filter0_d_1543_210)">
<rect x="1" y="1" width="356" height="247.62" rx="5" fill="#F4F4F4"/>
<rect x="0.5" y="0.5" width="357" height="248.62" rx="5.5" stroke="#D2D1D1"/>
</g>
<path d="M114 159.596V82.0607L182 43.293L250 82.0607V159.596H199V114.367H165V159.596H114Z" fill="#D9D9D9"/>
<path d="M128.625 184.179C125.275 184.179 122.875 186.054 122.875 188.829C122.875 191.579 125.275 193.504 128.625 193.504C132 193.504 134.4 191.579 134.4 188.829C134.4 186.054 132 184.179 128.625 184.179ZM128.625 185.904C130.825 185.904 132.4 187.104 132.4 188.829C132.4 190.579 130.825 191.754 128.625 191.754C126.425 191.754 124.85 190.579 124.85 188.829C124.85 187.104 126.425 185.904 128.625 185.904ZM127.7 196.004V205.029H129.775V196.004H127.7ZM137.7 183.129V205.754H139.75V183.129H137.7ZM121.475 197.129C125.6 197.129 131.15 197.054 136.25 196.129L136.1 194.579C131.125 195.329 125.4 195.379 121.2 195.379L121.475 197.129ZM145.273 193.929V195.629H146.998C151.598 195.629 154.198 195.529 157.298 194.979L157.073 193.304C154.048 193.829 151.523 193.929 146.998 193.929H145.273ZM145.273 184.654V194.579H147.323V186.354H155.598V184.654H145.273ZM146.673 189.229V190.904H155.173V189.229H146.673ZM159.698 183.129V196.804H161.773V183.129H159.698ZM161.198 189.104V190.854H165.123V189.104H161.198ZM147.098 197.929V199.629H159.698V205.729H161.773V197.929H147.098ZM185.552 190.779V192.479H191.852V190.779H185.552ZM180.102 185.079V189.104C180.102 193.304 177.552 197.654 174.227 199.304L175.552 200.954C179.127 199.029 181.802 194.179 181.802 189.104V185.079H180.102ZM180.502 185.079V189.104C180.502 194.054 183.127 198.704 186.777 200.554L188.002 198.879C184.727 197.329 182.177 193.229 182.177 189.104V185.079H180.502ZM190.827 183.104V205.754H192.877V183.104H190.827ZM213.675 183.104V205.754H215.75V183.104H213.675ZM198.55 185.029V200.304H209.2V185.029H207.125V191.004H200.6V185.029H198.55ZM200.6 192.654H207.125V198.604H200.6V192.654ZM229.323 184.679V186.404C229.323 190.254 225.073 193.704 221.098 194.454L222.023 196.179C226.548 195.154 231.123 191.329 231.123 186.404V184.679H229.323ZM229.698 184.679V186.404C229.698 191.354 234.298 195.154 238.798 196.179L239.723 194.454C235.773 193.704 231.498 190.279 231.498 186.404V184.679H229.698ZM220.273 200.979V202.679H240.748V200.979H220.273Z" fill="#434343"/>
<defs>
<filter id="filter0_d_1543_210" x="0" y="0" width="362" height="253.619" filterUnits="userSpaceOnUse" color-interpolation-filters="sRGB">
<feFlood flood-opacity="0" result="BackgroundImageFix"/>
<feColorMatrix in="SourceAlpha" type="matrix" values="0 0 0 0 0 0 0 0 0 0 0 0 0 0 0 0 0 0 127 0" result="hardAlpha"/>
<feOffset dx="2" dy="2"/>
<feGaussianBlur stdDeviation="1"/>
<feComposite in2="hardAlpha" operator="out"/>
<feColorMatrix type="matrix" values="0 0 0 0 0 0 0 0 0 0 0 0 0 0 0 0 0 0 0.25 0"/>
<feBlend mode="normal" in2="BackgroundImageFix" result="effect1_dropShadow_1543_210"/>
<feBlend mode="normal" in="SourceGraphic" in2="effect1_dropShadow_1543_210" result="shape"/>
</filter>
</defs>
</svg>
