<svg width="108" height="90" viewBox="0 0 108 90" fill="none" xmlns="http://www.w3.org/2000/svg">
<ellipse cx="54" cy="45" rx="54" ry="45" fill="#D9D9D9"/>
<rect x="42" y="33" width="24" height="24" fill="white" fill-opacity="0.01"/>
<path fill-rule="evenodd" clip-rule="evenodd" d="M44.6795 40.532C45.1436 38.1124 46.8054 36.5492 48.9127 36.5492C50.3404 36.5492 51.9377 37.2391 53.5321 38.5431C53.8155 38.775 54.2235 38.7761 54.509 38.5462C56.0882 37.2714 57.6718 36.5975 59.0884 36.5975C61.1895 36.5975 62.8498 38.1418 63.318 40.532C64.1018 44.5344 61.5213 49.9453 54.0194 53.1096C46.4992 50.0026 43.9033 44.5757 44.6795 40.532M53.7358 54.6663C53.8277 54.7031 53.925 54.7211 54.0223 54.7211C54.1217 54.7211 54.2208 54.7019 54.3146 54.6642C62.855 51.1858 65.754 44.9106 64.8383 40.2345C64.2213 37.0842 61.9644 35.0486 59.0884 35.0486C57.4694 35.0486 55.7292 35.708 54.0257 36.9627C52.3051 35.6768 50.5475 35 48.9127 35C46.0277 35 43.7689 37.0571 43.1581 40.24C42.252 44.961 45.1711 51.2528 53.7358 54.6663" fill="#121212"/>
</svg>
