<svg width="108" height="90" viewBox="0 0 108 90" fill="none" xmlns="http://www.w3.org/2000/svg">
<ellipse cx="54" cy="45" rx="54" ry="45" fill="#D9D9D9"/>
<rect x="42" y="33" width="24" height="24" fill="white" fill-opacity="0.01"/>
<path fill-rule="evenodd" clip-rule="evenodd" d="M54.0002 35.5494C59.2115 35.5494 63.4508 39.7888 63.4508 45C63.4508 50.2115 59.2115 54.4508 54.0002 54.4508C48.789 54.4508 44.5492 50.2115 44.5492 45C44.5492 39.7888 48.789 35.5494 54.0002 35.5494ZM54.0002 56.0002C60.0659 56.0002 65.0002 51.0657 65.0002 45C65.0002 38.9346 60.0659 34 54.0002 34C47.9346 34 43 38.9346 43 45C43 51.0657 47.9346 56.0002 54.0002 56.0002Z" fill="#121212"/>
<path fill-rule="evenodd" clip-rule="evenodd" d="M52.169 49.8539C51.7412 49.8539 51.3943 50.2008 51.3943 50.6286C51.3943 51.0561 51.7412 51.4033 52.169 51.4033H57.2718C57.6996 51.4033 58.0465 51.0561 58.0465 50.6286C58.0465 50.2008 57.6996 49.8539 57.2718 49.8539H55.495V43.011C55.495 42.5835 55.1481 42.2363 54.7205 42.2363H52.169C51.7412 42.2363 51.3943 42.5835 51.3943 43.011C51.3943 43.4388 51.7412 43.7857 52.169 43.7857H53.9458V49.8539H52.169Z" fill="#121212"/>
<path fill-rule="evenodd" clip-rule="evenodd" d="M53.66 40.9435C54.3525 40.9435 54.9139 40.382 54.9139 39.6895C54.9139 38.9968 54.3525 38.4355 53.66 38.4355C52.9675 38.4355 52.406 38.9968 52.406 39.6895C52.406 40.382 52.9675 40.9435 53.66 40.9435Z" fill="#121212"/>
</svg>
