<svg width="30" height="31" viewBox="0 0 30 31" fill="none" xmlns="http://www.w3.org/2000/svg">
<path d="M13.2424 24.4855H16.1852V21.5427H13.2424V24.4855ZM14.7138 0.943359C12.7816 0.943359 10.8682 1.32394 9.08308 2.06338C7.29792 2.80282 5.67588 3.88663 4.30958 5.25294C1.5502 8.01231 0 11.7548 0 15.6572C0 19.5595 1.5502 23.302 4.30958 26.0614C5.67588 27.4277 7.29792 28.5115 9.08308 29.251C10.8682 29.9904 12.7816 30.371 14.7138 30.371C18.6162 30.371 22.3587 28.8208 25.1181 26.0614C27.8774 23.302 29.4276 19.5595 29.4276 15.6572C29.4276 13.7249 29.047 11.8116 28.3076 10.0264C27.5682 8.24128 26.4844 6.61924 25.1181 5.25294C23.7518 3.88663 22.1297 2.80282 20.3445 2.06338C18.5594 1.32394 16.6461 0.943359 14.7138 0.943359ZM14.7138 27.4282C8.22502 27.4282 2.94276 22.146 2.94276 15.6572C2.94276 9.16838 8.22502 3.88612 14.7138 3.88612C21.2026 3.88612 26.4849 9.16838 26.4849 15.6572C26.4849 22.146 21.2026 27.4282 14.7138 27.4282ZM14.7138 6.82889C13.1529 6.82889 11.6559 7.44897 10.5521 8.55272C9.44837 9.65647 8.82829 11.1535 8.82829 12.7144H11.7711C11.7711 11.9339 12.0811 11.1854 12.633 10.6336C13.1848 10.0817 13.9333 9.77165 14.7138 9.77165C15.4943 9.77165 16.2428 10.0817 16.7947 10.6336C17.3465 11.1854 17.6566 11.9339 17.6566 12.7144C17.6566 15.6572 13.2424 15.2893 13.2424 20.0713H16.1852C16.1852 16.7607 20.5993 16.3929 20.5993 12.7144C20.5993 11.1535 19.9793 9.65647 18.8755 8.55272C17.7718 7.44897 16.2748 6.82889 14.7138 6.82889Z" fill="#FE5C17"/>
</svg>
