<svg width="20" height="20" viewBox="0 0 34 30" fill="none" xmlns="http://www.w3.org/2000/svg">
<path d="M25.3858 18.5853C24.8558 16.6927 23.71 15.0237 22.1242 13.8343C20.5385 12.6449 18.6003 12.0008 16.6071 12.0008C14.6139 12.0008 12.6758 12.6449 11.09 13.8343C9.50424 15.0237 8.35845 16.6927 7.82841 18.5853L6.5653 23.0953C6.33852 23.905 6.30468 24.7555 6.46643 25.5802C6.62819 26.405 6.98116 27.1818 7.49784 27.8501C8.01451 28.5184 8.68092 29.0601 9.4451 29.4331C10.2093 29.806 11.0506 30 11.9034 30H21.3108C22.1637 30 23.005 29.806 23.7692 29.4331C24.5333 29.0601 25.1997 28.5184 25.7164 27.8501C26.2331 27.1818 26.5861 26.405 26.7478 25.5802C26.9096 24.7555 26.8757 23.905 26.649 23.0953L25.3858 18.5853ZM23.9543 26.5281C23.6456 26.9305 23.246 27.2567 22.7872 27.4806C22.3284 27.7045 21.8229 27.8202 21.3108 27.8183H11.9034C11.3917 27.8183 10.8869 27.7019 10.4284 27.4781C9.96988 27.2544 9.57003 26.9293 9.26002 26.5284C8.95001 26.1274 8.73822 25.6613 8.64117 25.1664C8.54412 24.6715 8.56442 24.1613 8.70051 23.6754L9.96362 19.1655C10.3647 17.7332 11.2319 16.4702 12.4319 15.5701C13.632 14.67 15.0987 14.1825 16.6071 14.1825C18.1155 14.1825 19.5823 14.67 20.7823 15.5701C21.9824 16.4702 22.8495 17.7332 23.2506 19.1655L24.5138 23.6754C24.6518 24.1611 24.6731 24.6718 24.576 25.1669C24.4789 25.6621 24.266 26.1283 23.9543 26.5283V26.5281ZM8.99995 13.5219C9.19265 12.3356 8.9371 11.0656 8.28007 9.94506C7.62304 8.82448 6.63404 7.9715 5.4949 7.54272C4.27498 7.08381 3.0307 7.1569 1.99006 7.74842C-0.0786924 8.92491 -0.623101 11.8245 0.776717 14.2121C1.43354 15.3327 2.42261 16.1859 3.56175 16.6144C4.06636 16.8081 4.60274 16.9091 5.1443 16.9124C5.81901 16.9148 6.48231 16.741 7.06659 16.4087C8.10661 15.8171 8.79326 14.7919 8.99995 13.5219ZM6.81262 13.1771C6.71364 13.7858 6.41046 14.2625 5.95894 14.5192C5.50743 14.776 4.93679 14.7962 4.35188 14.5763C3.68648 14.326 3.09798 13.8092 2.69471 13.1212C1.91946 11.7986 2.10372 10.2032 3.09756 9.63785C3.3474 9.4982 3.63036 9.42627 3.9176 9.42936C4.18706 9.43211 4.45373 9.48333 4.70449 9.58051C5.36989 9.83093 5.95839 10.3477 6.36166 11.0356C6.76493 11.7236 6.92503 12.4843 6.81262 13.1771ZM9.23986 9.00215C10.0263 9.62142 10.9244 9.9439 11.8327 9.94384C12.1047 9.94375 12.376 9.91493 12.6418 9.85786C14.976 9.35805 16.3914 6.75962 15.7968 4.06555C15.5178 2.80111 14.8396 1.69177 13.8872 0.941742C12.8672 0.138598 11.6591 -0.16541 10.4853 0.0860322C8.15104 0.585781 6.73572 3.1842 7.33024 5.87828C7.60927 7.14279 8.28747 8.25212 9.23986 9.00215ZM10.9557 2.21798C11.0633 2.19512 11.1731 2.18369 11.2832 2.18389C11.6949 2.18389 12.1184 2.34254 12.504 2.64621C13.0603 3.08425 13.461 3.75302 13.6323 4.52937C13.9618 6.02214 13.2927 7.48614 12.1713 7.72626C11.6618 7.83535 11.1119 7.68344 10.6231 7.29844C10.0668 6.86032 9.66604 6.19156 9.49479 5.41528C9.16524 3.9221 9.83431 2.4581 10.9557 2.21798ZM31.2242 7.74842C30.184 7.1569 28.9391 7.08381 27.7194 7.54272C26.5802 7.97136 25.5911 8.82448 24.9343 9.94506C24.2775 11.0656 24.0219 12.3359 24.2144 13.5219C24.4209 14.7919 25.1074 15.8171 26.1478 16.4087C26.7321 16.741 27.3954 16.9149 28.0701 16.9124C28.6117 16.9091 29.148 16.8081 29.6526 16.6144C30.7918 16.1859 31.7809 15.3327 32.4377 14.2121C33.8374 11.8245 33.2929 8.92491 31.2242 7.74842ZM30.5195 13.1212C30.1163 13.8092 29.5278 14.326 28.8624 14.5763C28.2777 14.7964 27.707 14.7761 27.2554 14.5192C26.8039 14.2623 26.501 13.7858 26.4018 13.1771C26.2892 12.4843 26.4493 11.7239 26.8526 11.0363C27.2559 10.3486 27.8444 9.83155 28.5098 9.58113C28.7605 9.48386 29.0272 9.43254 29.2966 9.4297C29.5839 9.42661 29.8668 9.49854 30.1167 9.63819C31.1105 10.2031 31.295 11.7982 30.5195 13.1212ZM20.5725 9.85786C20.8383 9.91493 21.1095 9.94375 21.3816 9.94384C22.2897 9.94384 23.1882 9.62142 23.9744 9.00215C24.9268 8.25219 25.605 7.14279 25.884 5.87835C26.4785 3.18427 25.0632 0.585849 22.729 0.0861003C21.5553 -0.165206 20.347 0.138598 19.3271 0.94181C18.3746 1.69177 17.6964 2.80118 17.4175 4.06555C16.8229 6.75962 18.2382 9.35805 20.5725 9.85786ZM19.582 4.52903C19.7532 3.75268 20.1539 3.08364 20.7102 2.64587C21.0959 2.3422 21.5193 2.18355 21.931 2.18355C22.0411 2.18335 22.151 2.19478 22.2586 2.21764C23.3799 2.45776 24.049 3.9221 23.7196 5.41453C23.5482 6.19088 23.1475 6.85992 22.5913 7.29776C22.1026 7.6827 21.553 7.8346 21.0431 7.72558C19.9215 7.4858 19.2525 6.02159 19.582 4.52903Z" fill="#FE5C17"/>
</svg>
