<svg width="108" height="90" viewBox="0 0 108 90" fill="none" xmlns="http://www.w3.org/2000/svg">
<ellipse cx="54" cy="45" rx="54" ry="45" fill="#D9D9D9"/>
<rect x="42" y="33" width="24" height="24" fill="white" fill-opacity="0.01"/>
<path fill-rule="evenodd" clip-rule="evenodd" d="M64.2127 54.0605H43.774C43.3465 54.0605 43 54.4073 43 54.8348C43 55.2621 43.3465 55.609 43.774 55.609H64.2127C64.6404 55.609 64.9869 55.2621 64.9869 54.8348C64.9869 54.4073 64.6404 54.0605 64.2127 54.0605Z" fill="#121212"/>
<path fill-rule="evenodd" clip-rule="evenodd" d="M44.565 47.614L53.7921 38.3872L56.3105 40.9052L47.0831 50.1326L44.5521 50.1452L44.565 47.614ZM58.8287 38.387L57.4053 39.8104L54.8871 37.2922L56.3105 35.8688L58.8287 38.387ZM43.0181 47.2878L43 50.9195C42.9989 51.126 43.0806 51.3246 43.2266 51.4709C43.372 51.6161 43.5688 51.6975 43.774 51.6975H43.7779L47.4093 51.6795C47.6134 51.6786 47.8086 51.5969 47.9529 51.4526L60.4709 38.9344C60.7731 38.6322 60.7731 38.1421 60.4709 37.8396L56.8579 34.2267C56.5555 33.9244 56.0656 33.9244 55.7632 34.2267L53.2447 36.7449L53.2441 36.7458L43.2449 46.7445C43.1005 46.8887 43.019 47.0842 43.0181 47.2878Z" fill="#121212"/>
</svg>
