<svg width="107" height="107" viewBox="0 0 107 107" fill="none" xmlns="http://www.w3.org/2000/svg">
<path d="M53.5 23.1833C47.5039 23.1833 41.6425 24.9614 36.657 28.2926C31.6714 31.6239 27.7856 36.3587 25.4911 41.8983C23.1965 47.438 22.5961 53.5336 23.7659 59.4145C24.9356 65.2953 27.823 70.6973 32.0629 74.9371C36.3027 79.177 41.7047 82.0644 47.5855 83.2341C53.4664 84.4039 59.562 83.8035 65.1017 81.5089C70.6413 79.2143 75.3761 75.3286 78.7074 70.343C82.0386 65.3575 83.8167 59.4961 83.8167 53.5C83.8049 45.4631 80.607 37.7588 74.9241 32.0759C69.2412 26.393 61.5369 23.1951 53.5 23.1833ZM53.5 76.6833C48.9148 76.6833 44.4325 75.3237 40.62 72.7762C36.8076 70.2288 33.8361 66.6081 32.0814 62.3719C30.3267 58.1357 29.8676 53.4743 30.7621 48.9772C31.6567 44.48 33.8647 40.3492 37.1069 37.1069C40.3492 33.8647 44.48 31.6567 48.9772 30.7621C53.4743 29.8676 58.1357 30.3267 62.3719 32.0814C66.6081 33.8361 70.2288 36.8076 72.7762 40.62C75.3237 44.4325 76.6833 48.9148 76.6833 53.5C76.6833 59.6486 74.2408 65.5454 69.8931 69.8931C65.5454 74.2408 59.6486 76.6833 53.5 76.6833ZM49.9333 12.4833V3.56667C49.9333 2.62073 50.3091 1.71353 50.978 1.04465C51.6469 0.375773 52.5541 0 53.5 0C54.4459 0 55.3531 0.375773 56.022 1.04465C56.6909 1.71353 57.0667 2.62073 57.0667 3.56667V12.4833C57.0667 13.4293 56.6909 14.3365 56.022 15.0053C55.3531 15.6742 54.4459 16.05 53.5 16.05C52.5541 16.05 51.6469 15.6742 50.978 15.0053C50.3091 14.3365 49.9333 13.4293 49.9333 12.4833ZM15.6487 20.7312C15.2591 20.4115 14.9407 20.0136 14.7141 19.5634C14.4875 19.1131 14.3576 18.6204 14.3329 18.1169C14.3081 17.6135 14.3891 17.1104 14.5705 16.6401C14.7519 16.1698 15.0298 15.7427 15.3862 15.3862C15.7427 15.0298 16.1698 14.7519 16.6401 14.5705C17.1104 14.3891 17.6135 14.3081 18.1169 14.3329C18.6204 14.3576 19.1131 14.4875 19.5634 14.7141C20.0136 14.9407 20.4115 15.2591 20.7312 15.6487L27.0175 21.9796C27.6845 22.6482 28.0591 23.5541 28.0591 24.4985C28.0591 25.443 27.6845 26.3489 27.0175 27.0175C26.3433 27.6738 25.4395 28.0411 24.4985 28.0411C23.5576 28.0411 22.6538 27.6738 21.9796 27.0175L15.6487 20.7312ZM12.4833 57.0667H3.56667C2.62073 57.0667 1.71353 56.6909 1.04465 56.022C0.375773 55.3531 0 54.4459 0 53.5C0 52.5541 0.375773 51.6469 1.04465 50.978C1.71353 50.3091 2.62073 49.9333 3.56667 49.9333H12.4833C13.4293 49.9333 14.3365 50.3091 15.0053 50.978C15.6742 51.6469 16.05 52.5541 16.05 53.5C16.05 54.4459 15.6742 55.3531 15.0053 56.022C14.3365 56.6909 13.4293 57.0667 12.4833 57.0667ZM27.0175 79.9825C27.6845 80.6511 28.0591 81.557 28.0591 82.5015C28.0591 83.4459 27.6845 84.3518 27.0175 85.0204L20.7312 91.3512C20.0466 92.0057 19.1371 92.3727 18.19 92.3767C17.2447 92.3638 16.3383 91.9981 15.6487 91.3512C14.979 90.675 14.6033 89.7618 14.6033 88.81C14.6033 87.8582 14.979 86.945 15.6487 86.2687L21.9796 79.9825C22.6482 79.3155 23.5541 78.9409 24.4985 78.9409C25.443 78.9409 26.3489 79.3155 27.0175 79.9825ZM57.0667 94.5167V103.433C57.0667 104.379 56.6909 105.286 56.022 105.955C55.3531 106.624 54.4459 107 53.5 107C52.5541 107 51.6469 106.624 50.978 105.955C50.3091 105.286 49.9333 104.379 49.9333 103.433V94.5167C49.9333 93.5707 50.3091 92.6635 50.978 91.9947C51.6469 91.3258 52.5541 90.95 53.5 90.95C54.4459 90.95 55.3531 91.3258 56.022 91.9947C56.6909 92.6635 57.0667 93.5707 57.0667 94.5167ZM91.3512 86.2687C92.021 86.945 92.3967 87.8582 92.3967 88.81C92.3967 89.7618 92.021 90.675 91.3512 91.3512C90.6617 91.9981 89.7553 92.3638 88.81 92.3767C87.8629 92.3727 86.9534 92.0057 86.2687 91.3512L79.9825 85.0204C79.3677 84.3419 79.0375 83.4531 79.06 82.5378C79.0825 81.6225 79.4562 80.751 80.1036 80.1036C80.751 79.4562 81.6225 79.0825 82.5378 79.06C83.4531 79.0375 84.3419 79.3677 85.0204 79.9825L91.3512 86.2687ZM107 53.5C107 54.4459 106.624 55.3531 105.955 56.022C105.286 56.6909 104.379 57.0667 103.433 57.0667H94.5167C93.5707 57.0667 92.6635 56.6909 91.9947 56.022C91.3258 55.3531 90.95 54.4459 90.95 53.5C90.95 52.5541 91.3258 51.6469 91.9947 50.978C92.6635 50.3091 93.5707 49.9333 94.5167 49.9333H103.433C104.379 49.9333 105.286 50.3091 105.955 50.978C106.624 51.6469 107 52.5541 107 53.5ZM79.9825 27.0175C79.3155 26.3489 78.9409 25.443 78.9409 24.4985C78.9409 23.5541 79.3155 22.6482 79.9825 21.9796L86.2687 15.6487C86.9617 15.08 87.8415 14.7893 88.7369 14.8333C89.6323 14.8773 90.4794 15.2528 91.1133 15.8867C91.7472 16.5206 92.1227 17.3677 92.1667 18.2631C92.2107 19.1585 91.92 20.0383 91.3512 20.7312L85.0204 27.0175C84.3462 27.6738 83.4424 28.0411 82.5015 28.0411C81.5605 28.0411 80.6567 27.6738 79.9825 27.0175Z" fill="black"/>
</svg>
