<svg width="108" height="90" viewBox="0 0 108 90" fill="none" xmlns="http://www.w3.org/2000/svg">
<ellipse cx="54" cy="45" rx="54" ry="45" fill="#D9D9D9"/>
<rect x="43" y="28" width="24" height="24" fill="white" fill-opacity="0.01"/>
<path fill-rule="evenodd" clip-rule="evenodd" d="M64.4509 34.9944H45.5494V32.9802H48.7491V33.3996C48.7491 33.8276 49.0958 34.1743 49.5238 34.1743C49.9515 34.1743 50.2985 33.8276 50.2985 33.3996V32.9802H59.8201V33.3996C59.8201 33.8276 60.1668 34.1743 60.5948 34.1743C61.0228 34.1743 61.3695 33.8276 61.3695 33.3996V32.9802H64.4509V34.9944ZM45.5494 48.7829H64.4509V36.5435H45.5494V48.7829ZM65.2255 31.4308H61.3695V30.7747C61.3695 30.3467 61.0228 30 60.5948 30C60.1668 30 59.8201 30.3467 59.8201 30.7747V31.4308H50.2985V30.7747C50.2985 30.3467 49.9515 30 49.5238 30C49.0958 30 48.7491 30.3467 48.7491 30.7747V31.4308H44.7747C44.3469 31.4308 44 31.7775 44 32.2055V49.5576C44 49.9856 44.3469 50.3323 44.7747 50.3323H65.2255C65.6533 50.3323 66.0002 49.9856 66.0002 49.5576V32.2055C66.0002 31.7775 65.6533 31.4308 65.2255 31.4308Z" fill="#121212"/>
<path fill-rule="evenodd" clip-rule="evenodd" d="M49.4053 41.6558H60.5947C61.0225 41.6558 61.3691 41.3091 61.3691 40.8811C61.3691 40.4534 61.0225 40.1064 60.5947 40.1064H49.4053C48.9773 40.1064 48.6306 40.4534 48.6306 40.8811C48.6306 41.3091 48.9773 41.6558 49.4053 41.6558Z" fill="#121212"/>
<path fill-rule="evenodd" clip-rule="evenodd" d="M49.4053 45.4136H54.9998C55.4278 45.4136 55.7745 45.0669 55.7745 44.6389C55.7745 44.2112 55.4278 43.8643 54.9998 43.8643H49.4053C48.9773 43.8643 48.6306 44.2112 48.6306 44.6389C48.6306 45.0669 48.9773 45.4136 49.4053 45.4136Z" fill="#121212"/>
</svg>
