<svg width="362" height="254" viewBox="0 0 362 254" fill="none" xmlns="http://www.w3.org/2000/svg">
<g filter="url(#filter0_d_1543_211)">
<rect x="1" y="1" width="356" height="247.62" rx="5" fill="#F4F4F4"/>
<rect x="0.5" y="0.5" width="357" height="248.62" rx="5.5" stroke="#D2D1D1"/>
</g>
<path d="M199.281 95.5286C213.533 95.5286 222.304 77.75 222.304 66.5214C222.304 57.1643 216.822 45.9357 205.859 45.9357C191.607 45.9357 182.837 63.7143 182.837 74.9429C182.837 84.3 188.319 95.5286 199.281 95.5286ZM157.622 95.5286C168.585 95.5286 174.067 84.3 174.067 74.9429C174.067 62.7786 165.296 45 151.044 45C140.081 45 134.6 56.2286 134.6 65.5857C133.504 77.75 142.274 95.5286 157.622 95.5286ZM238.748 86.1714C224.496 86.1714 214.63 103.014 214.63 115.179C214.63 123.6 219.015 132.021 228.881 132.021C243.133 132.021 253 115.179 253 103.014C253 94.5929 247.519 86.1714 238.748 86.1714ZM143.37 115.179C143.37 103.014 132.407 86.1714 119.252 86.1714C109.385 86.1714 105 94.5929 105 103.014C105 115.179 115.963 132.021 129.119 132.021C138.985 132.021 143.37 123.6 143.37 115.179ZM178.452 113.307C156.526 113.307 126.926 143.25 126.926 163.836C126.926 173.193 134.6 176 143.37 176C156.526 176 166.393 168.514 178.452 168.514C189.415 168.514 199.281 176 211.341 176C220.111 176 229.978 174.129 229.978 163.836C229.978 143.25 200.378 113.307 178.452 113.307Z" fill="#D9D9D9"/>
<path d="M130.575 202.525C125.975 202.525 123.15 204.075 123.15 206.725C123.15 209.375 125.975 210.925 130.575 210.925C135.175 210.925 138 209.375 138 206.725C138 204.075 135.175 202.525 130.575 202.525ZM130.575 204.2C133.925 204.2 135.975 205.125 135.975 206.725C135.975 208.35 133.925 209.275 130.575 209.275C127.225 209.275 125.175 208.35 125.175 206.725C125.175 205.125 127.225 204.2 130.575 204.2ZM135.7 188.35V201.925H137.775V188.35H135.7ZM137.2 194.025V195.775H141.125V194.025H137.2ZM121.175 189.775V200.2H131.625V189.775H129.6V193.15H123.225V189.775H121.175ZM123.225 194.8H129.6V198.525H123.225V194.8ZM143.223 199.9V201.6H163.698V199.9H143.223ZM152.573 200.95V206.15H154.648V200.95H152.573ZM145.848 189.4V197.35H161.048V189.4H145.848ZM158.998 191.075V195.675H147.873V191.075H158.998ZM145.823 208.75V210.45H161.423V208.75H145.823ZM145.823 203.975V209.35H147.873V203.975H145.823ZM184.552 196V197.7H190.852V196H184.552ZM179.102 190.3V194.325C179.102 198.525 176.552 202.875 173.227 204.525L174.552 206.175C178.127 204.25 180.802 199.4 180.802 194.325V190.3H179.102ZM179.502 190.3V194.325C179.502 199.275 182.127 203.925 185.777 205.775L187.002 204.1C183.727 202.55 181.177 198.45 181.177 194.325V190.3H179.502ZM189.827 188.325V210.975H191.877V188.325H189.827ZM212.675 188.325V210.975H214.75V188.325H212.675ZM197.55 190.25V205.525H208.2V190.25H206.125V196.225H199.6V190.25H197.55ZM199.6 197.875H206.125V203.825H199.6V197.875ZM228.323 189.9V191.625C228.323 195.475 224.073 198.925 220.098 199.675L221.023 201.4C225.548 200.375 230.123 196.55 230.123 191.625V189.9H228.323ZM228.698 189.9V191.625C228.698 196.575 233.298 200.375 237.798 201.4L238.723 199.675C234.773 198.925 230.498 195.5 230.498 191.625V189.9H228.698ZM219.273 206.2V207.9H239.748V206.2H219.273Z" fill="#434343"/>
<defs>
<filter id="filter0_d_1543_211" x="0" y="0" width="362" height="253.619" filterUnits="userSpaceOnUse" color-interpolation-filters="sRGB">
<feFlood flood-opacity="0" result="BackgroundImageFix"/>
<feColorMatrix in="SourceAlpha" type="matrix" values="0 0 0 0 0 0 0 0 0 0 0 0 0 0 0 0 0 0 127 0" result="hardAlpha"/>
<feOffset dx="2" dy="2"/>
<feGaussianBlur stdDeviation="1"/>
<feComposite in2="hardAlpha" operator="out"/>
<feColorMatrix type="matrix" values="0 0 0 0 0 0 0 0 0 0 0 0 0 0 0 0 0 0 0.25 0"/>
<feBlend mode="normal" in2="BackgroundImageFix" result="effect1_dropShadow_1543_211"/>
<feBlend mode="normal" in="SourceGraphic" in2="effect1_dropShadow_1543_211" result="shape"/>
</filter>
</defs>
</svg>
