<svg width="148" height="131" viewBox="0 0 148 131" fill="none" xmlns="http://www.w3.org/2000/svg">
<path d="M94.2815 50.5286C108.533 50.5286 117.304 32.75 117.304 21.5214C117.304 12.1643 111.822 0.935713 100.859 0.935713C86.6074 0.935713 77.837 18.7143 77.837 29.9429C77.837 39.3 83.3185 50.5286 94.2815 50.5286ZM52.6222 50.5286C63.5852 50.5286 69.0667 39.3 69.0667 29.9429C69.0667 17.7786 60.2963 0 46.0444 0C35.0815 0 29.6 11.2286 29.6 20.5857C28.5037 32.75 37.2741 50.5286 52.6222 50.5286ZM133.748 41.1714C119.496 41.1714 109.63 58.0143 109.63 70.1786C109.63 78.6 114.015 87.0214 123.881 87.0214C138.133 87.0214 148 70.1786 148 58.0143C148 49.5929 142.519 41.1714 133.748 41.1714ZM38.3704 70.1786C38.3704 58.0143 27.4074 41.1714 14.2519 41.1714C4.38518 41.1714 0 49.5929 0 58.0143C0 70.1786 10.963 87.0214 24.1185 87.0214C33.9852 87.0214 38.3704 78.6 38.3704 70.1786ZM73.4519 68.3072C51.5259 68.3072 21.9259 98.25 21.9259 118.836C21.9259 128.193 29.6 131 38.3704 131C51.5259 131 61.3926 123.514 73.4519 123.514C84.4148 123.514 94.2815 131 106.341 131C115.111 131 124.978 129.129 124.978 118.836C124.978 98.25 95.3778 68.3072 73.4519 68.3072Z" fill="#D9D9D9"/>
</svg>
