<svg width="15" height="15" viewBox="0 0 26 27" fill="none" xmlns="http://www.w3.org/2000/svg">
<path d="M16.563 10.4143C19.0667 10.4143 20.6074 6.75 20.6074 4.43571C20.6074 2.50714 19.6444 0.192857 17.7185 0.192857C15.2148 0.192857 13.6741 3.85714 13.6741 6.17143C13.6741 8.1 14.637 10.4143 16.563 10.4143ZM9.24445 10.4143C11.1704 10.4143 12.1333 8.1 12.1333 6.17143C12.1333 3.66429 10.5926 0 8.08889 0C6.16296 0 5.2 2.31429 5.2 4.24286C5.00741 6.75 6.54815 10.4143 9.24445 10.4143ZM23.4963 8.48571C20.9926 8.48571 19.2593 11.9571 19.2593 14.4643C19.2593 16.2 20.0296 17.9357 21.763 17.9357C24.2667 17.9357 26 14.4643 26 11.9571C26 10.2214 25.037 8.48571 23.4963 8.48571ZM6.74074 14.4643C6.74074 11.9571 4.81482 8.48571 2.5037 8.48571C0.77037 8.48571 0 10.2214 0 11.9571C0 14.4643 1.92593 17.9357 4.23704 17.9357C5.97037 17.9357 6.74074 16.2 6.74074 14.4643ZM12.9037 14.0786C9.05185 14.0786 3.85185 20.25 3.85185 24.4929C3.85185 26.4214 5.2 27 6.74074 27C9.05185 27 10.7852 25.4571 12.9037 25.4571C14.8296 25.4571 16.563 27 18.6815 27C20.2222 27 21.9556 26.6143 21.9556 24.4929C21.9556 20.25 16.7556 14.0786 12.9037 14.0786Z" fill="#FE5C17"/>
</svg>
