<svg width="108" height="90" viewBox="0 0 108 90" fill="none" xmlns="http://www.w3.org/2000/svg">
<ellipse cx="54" cy="45" rx="54" ry="45" fill="#D9D9D9"/>
<rect x="42" y="31" width="24" height="24" fill="white" fill-opacity="0.01"/>
<path fill-rule="evenodd" clip-rule="evenodd" d="M58.8379 45.3636C58.6522 45.5591 58.5813 45.8374 58.6515 46.0979L60.062 51.3419L54.09 48.965C53.9979 48.9282 53.9009 48.9099 53.8036 48.9099C53.7063 48.9099 53.6092 48.9282 53.5174 48.965L47.5445 51.3414L48.955 46.0979C49.0239 45.8419 48.9568 45.5683 48.7774 45.3731L45.2089 41.4881L50.5753 39.8828C50.7714 39.8238 50.9364 39.6898 51.0339 39.5096L53.8036 34.3992L56.5739 39.5103C56.6674 39.6825 56.8227 39.8132 57.0084 39.8751L62.3507 41.666L58.8379 45.3636ZM64.5 41.1312C64.4363 40.8746 64.2456 40.6681 63.9946 40.5843L57.7899 38.5043L54.4844 32.4054C54.3489 32.1557 54.0876 32 53.8036 32C53.5196 32 53.2582 32.1557 53.123 32.4054L49.825 38.4905L43.5801 40.359C43.3246 40.4356 43.1264 40.6383 43.0555 40.8954C42.9848 41.1529 43.0516 41.4281 43.232 41.6247L47.3492 46.1071L45.6482 52.4306C45.5721 52.7134 45.6622 53.0154 45.8809 53.21C46.0996 53.405 46.4098 53.4594 46.6822 53.3511L53.8036 50.5173L60.9245 53.3515C61.0173 53.3883 61.1144 53.4064 61.211 53.4064C61.3974 53.4064 61.5814 53.3389 61.7258 53.2104C61.9446 53.0159 62.0349 52.7138 61.9586 52.4312L60.2595 46.115L64.3099 41.8515C64.4921 41.6594 64.5641 41.3883 64.5 41.1312Z" fill="#121212"/>
</svg>
